<svg xmlns="http://www.w3.org/2000/svg" width="128.4mm" height="99.21mm" viewBox="0 0 363.97 281.21">
  <defs>
    <style>
      .a {
        font-size: 11.08px;
        font-family: Arial-BoldMT, Arial;
        font-weight: 700;
        letter-spacing: -0.03em;
      }

      .a, .d {
        fill: #231815;
      }

      .b {
        fill: #cb2c20;
      }

      .c {
        fill: #fffefe;
      }
    </style>
  </defs>
  <text class="a" transform="translate(16.65 272.71)">clinical infrastructure for radiologic computation of united solutions</text>
  <g>
    <path class="b" d="M178.47,15.2c1.16-3.43,2.13-6.92,3.36-10.32,1.12,3.44,2.16,6.9,3.32,10.33,3.61,0,7.22,0,10.83,0-2.86,2-5.67,4.1-8.52,6.13,1.06,3.41,2.17,6.81,3.24,10.23-3-1.89-5.92-4-8.89-6l-8.52,6.16c1.08-3.47,2.21-6.91,3.28-10.38-3-2-6-4.1-9-6.14,3.62-.05,7.25,0,10.88,0Z"/>
    <path class="c" d="M181.76,7.8c1.08,2.7,1.81,5.51,2.72,8.25h8.83c-2.28,1.65-4.53,3.32-6.83,4.9.78,2.88,1.8,5.69,2.65,8.56-2.47-1.63-4.88-3.33-7.33-5-2.3,1.63-4.54,3.34-6.88,4.91.82-2.66,1.72-5.28,2.51-7.94.32-.57-.42-.83-.74-1.12-2.11-1.43-4.23-2.85-6.31-4.32h8.75c.87-2.75,1.73-5.5,2.63-8.25Z"/>
    <path class="b" d="M171.47,34a11,11,0,0,1,1.69-1.24C154.88,75.68,136.4,118.53,118,161.43c-6.19,14.4-12.32,28.83-18.56,43.21a25,25,0,0,0-2.86-10,60.24,60.24,0,0,0-11.53-15A131.53,131.53,0,0,0,56.83,159,160.07,160.07,0,0,0,15.3,142.8,91,91,0,0,0,0,140.54c15.93-5,31.27-11.79,46.27-19.11,16.9-8.29,33.29-17.6,49.32-27.44a495.53,495.53,0,0,0,41-28.06c12.49-9.64,24.69-19.84,34.88-31.94Z"/>
    <path class="b" d="M190.89,32.74a12.63,12.63,0,0,1,1.62,1.32c8.66,10.32,18.88,19.19,29.36,27.62a478.22,478.22,0,0,0,42,29.65c14.5,9.15,29.35,17.75,44.6,25.61,17.91,9.16,36.31,17.56,55.52,23.65a93.68,93.68,0,0,0-19.73,3.26A164.72,164.72,0,0,0,302.05,162a130.31,130.31,0,0,0-20.46,15.1,70.32,70.32,0,0,0-12.66,14.81,27.39,27.39,0,0,0-4.37,12.72Q232.43,130,200.46,55.23c-3.17-7.5-6.49-14.95-9.57-22.49Z"/>
    <path class="b" d="M156.05,95.71c8.64-20.15,17.09-40.38,26-60.42,14.37,32.62,28.07,65.54,42.1,98.31,10.49,24.77,21.13,49.49,31.53,74.3a21.35,21.35,0,0,1-2.95-3.06A60.88,60.88,0,0,0,235.14,192c-15.71-7.77-33.35-11-50.78-11.38-17.84-.25-36,2.5-52.34,9.78a67.2,67.2,0,0,0-20.5,13.77c-1.12,1.06-1.74,2.56-3,3.43a25.55,25.55,0,0,1,1.71-4.32q22.95-53.81,45.87-107.61Z"/>
    <path class="c" d="M182,36.85q22.14,52,44.25,104c8.9,21,17.92,42,26.75,63A63.6,63.6,0,0,0,235,191c-15.69-7.62-33.22-10.8-50.56-11.19-17.75-.25-35.76,2.47-52.11,9.6a69,69,0,0,0-21.21,14q22.85-53.5,45.64-107c8.43-19.85,17-39.66,25.33-59.53Z"/>
  </g>
  <g>
    <path class="d" d="M278.38,220.57c1.72-1.11,3.87-1.11,5.85-1.18,6.45,0,12.89,0,19.33,0,2.23.08,4.78.27,6.38,2,1.42,1.89,1.45,4.39,1.42,6.66-1.79.41-3.54,1-5.3,1.44,0-1.72,0-3.45,0-5.17-8.19,0-16.37,0-24.54,0-.08,3.18,0,6.36,0,9.54,7.5.18,15,0,22.51.08,1.83.09,3.8.15,5.4,1.19s2.09,3.21,2.3,5a67,67,0,0,1,0,8.14,8.06,8.06,0,0,1-1.56,4.65c-1.52,1.46-3.76,1.63-5.75,1.78H282.12c-2.24-.13-4.89-.39-6.3-2.38-1.27-2.15-1.17-4.71-1.14-7.12,1.87-.48,3.75-.94,5.64-1.31,0,1.88,0,3.77,0,5.66,8.66,0,17.31,0,26,0,0-3.43,0-6.86,0-10.29-7.5,0-15,0-22.51,0-2-.12-4.12-.23-5.73-1.49s-1.8-3.18-2-4.93a55.39,55.39,0,0,1,.06-7.73c.24-1.7.68-3.65,2.26-4.61Z"/>
    <path class="d" d="M220.43,219.41c2,0,4,0,6.07,0q0,15.12,0,30.23c8.45,0,16.9,0,25.35,0,.06-10.09,0-20.18.05-30.26,2,0,4,0,6,0,.07,9.09,0,18.19,0,27.28-.13,2.24-.16,4.85-1.86,6.53-1.92,1.55-4.58,1.6-6.94,1.61-7.17,0-14.32,0-21.48,0-2.1-.17-4.53-.41-5.92-2.21a9.92,9.92,0,0,1-1.27-5.06c0-9.37,0-18.73,0-28.09Z"/>
    <path class="d" d="M170.31,221.47c1.66-1.92,4.4-2,6.75-2.08,6.88,0,13.75,0,20.62,0,2.26.1,5,.27,6.41,2.31,1.52,2.91,1.12,6.32,1.24,9.49-2,.44-4.08.82-6.14,1.16-.11-2.67,0-5.34-.07-8-8,0-16.08,0-24.13,0v25.26c8,0,16.09,0,24.14,0,.05-2.94,0-5.87.05-8.8,2,.36,4.08.84,6.12,1.21,0,3.22.27,6.6-.86,9.68-1,2.49-4,2.89-6.31,3-7.17,0-14.33,0-21.49,0-2.16-.1-4.63-.29-6.21-2-1.24-1.64-1.42-3.79-1.52-5.77q0-9.84,0-19.69a11.13,11.13,0,0,1,1.4-5.88Z"/>
    <path class="d" d="M141.28,241.07c3.22-.16,6.69.56,9.67-1,1.93-1,2.54-3.38,2.6-5.4,0-2.72,0-5.45,0-8.18,0-1.94-.29-4.11-1.78-5.5-1.74-1.54-4.21-1.57-6.41-1.6-9.26,0-18.54,0-27.81,0,0,11.78,0,23.57,0,35.36h6c0-4.56,0-9.12,0-13.68,3.39-.06,6.78,0,10.17,0,4.72,4.6,9.54,9.11,14.26,13.7,3,0,6.08,0,9.12,0C152,250.07,146.5,245.73,141.28,241.07Zm-17.64-4.79c0-4,0-8,0-12,5.83-.25,11.67,0,17.49-.11,1.64.06,3.38-.19,4.94.46,1.32.66,1.39,2.32,1.37,3.61a39,39,0,0,1-.21,6.21c-.39,1.52-2.16,1.91-3.52,1.88C137,236.3,130.32,236.34,123.64,236.28Z"/>
    <path class="d" d="M93.55,219.43c2-.08,4.06,0,6.08,0q0,17.7,0,35.39h-6c0-11.79,0-23.57,0-35.35Z"/>
    <path class="d" d="M43.45,221.47c1.66-1.92,4.4-2,6.76-2.08,6.86,0,13.73,0,20.59,0,2.26.1,5,.27,6.4,2.26,1.56,2.91,1.14,6.36,1.27,9.54-2,.44-4.09.82-6.15,1.16-.1-2.67,0-5.34-.06-8-8,0-16.09,0-24.13,0q0,12.63,0,25.26H72.27c0-2.94,0-5.87,0-8.8,2,.35,4.08.84,6.13,1.21,0,3.22.26,6.59-.86,9.67-1,2.51-4,2.89-6.33,3.05q-11,0-21.92,0c-2.11-.15-4.54-.41-5.94-2.19a11.37,11.37,0,0,1-1.35-5.9q0-9.69,0-19.37a11.06,11.06,0,0,1,1.41-5.84Z"/>
  </g>
</svg>
