<svg xmlns="http://www.w3.org/2000/svg" width="100mm" height="100mm" viewBox="0 0 283.46 283.46">
  <defs>
    <style>
      .a {
        fill: #fff;
        stroke: #cb2c20;
        stroke-miterlimit: 10;
      }

      .b {
        fill: #cb2c20;
      }
    </style>
  </defs>
  <g>
    <path class="a" d="M139.19,71.11c.85-2.51,1.56-5.07,2.46-7.56.82,2.52,1.58,5.06,2.43,7.57,2.64,0,5.29,0,7.93,0-2.09,1.48-4.15,3-6.24,4.48.78,2.5,1.59,5,2.37,7.49-2.22-1.38-4.33-2.94-6.5-4.39l-6.24,4.51c.79-2.54,1.61-5.06,2.4-7.6-2.2-1.49-4.38-3-6.58-4.49,2.66,0,5.31,0,8,0Z"/>
    <path class="b" d="M134.06,84.87A7.9,7.9,0,0,1,135.3,84c-13.39,31.44-26.92,62.81-40.36,94.22-4.54,10.55-9,21.11-13.59,31.65a18.49,18.49,0,0,0-2.09-7.31,44.19,44.19,0,0,0-8.45-11,96.46,96.46,0,0,0-20.69-15.09,116.85,116.85,0,0,0-30.41-11.87A66.36,66.36,0,0,0,8.5,162.89a250.12,250.12,0,0,0,33.89-14C54.76,142.82,66.76,136,78.5,128.81c10.32-6.39,20.39-13.18,30-20.56,9.15-7,18.08-14.52,25.54-23.38Z"/>
    <path class="b" d="M148.28,84a9.17,9.17,0,0,1,1.19,1c6.34,7.56,13.83,14,21.5,20.22a348.85,348.85,0,0,0,30.74,21.71c10.62,6.7,21.49,13,32.66,18.76,13.11,6.71,26.58,12.86,40.65,17.31a68.17,68.17,0,0,0-14.45,2.4,120.13,120.13,0,0,0-30.89,13.3,95.37,95.37,0,0,0-15,11,51.67,51.67,0,0,0-9.27,10.85,20,20,0,0,0-3.2,9.31q-23.53-54.68-46.94-109.41c-2.32-5.49-4.75-10.94-7-16.47Z"/>
    <path class="a" d="M122.77,130.06c6.33-14.76,12.52-29.57,19-44.24,10.53,23.89,20.56,48,30.83,72,7.68,18.14,15.47,36.24,23.09,54.41a15.26,15.26,0,0,1-2.16-2.24,44.5,44.5,0,0,0-12.88-9.37c-11.5-5.69-24.42-8-37.18-8.33-13.06-.19-26.33,1.83-38.32,7.16a49,49,0,0,0-15,10.08c-.83.77-1.28,1.87-2.24,2.51a18.26,18.26,0,0,1,1.26-3.16q16.78-39.41,33.58-78.8Z"/>
  </g>
</svg>
